<svg height="512pt" viewBox="0 -70 512.001 512" width="512pt" xmlns="http://www.w3.org/2000/svg"><path d="m392.96875 361.929688h-258.582031c-17.253907 0-31.238281-13.988282-31.238281-31.242188v-220.394531c0-17.253907 13.984374-31.242188 31.238281-31.242188h336.375c17.25 0 31.238281 13.988281 31.238281 31.242188v220.398437c0 17.25-13.988281 31.238282-31.238281 31.238282zm0 0" fill="#f46370"/><path d="m436.117188 200.960938c-14.339844 8.367187-32.265626 5.09375-42.824219-6.921876l21.257812-12.390624c6.8125-3.964844 6.773438-13.816407-.070312-17.734376l-22.828125-13.0625c2.648437-3.523437 6.019531-6.570312 10.066406-8.925781 16.304688-9.503906 37.226562-3.988281 46.71875 12.316407 9.5 16.304687 3.984375 37.230468-12.320312 46.71875zm0 0" fill="#ffbd5a"/><path d="m352.355469 146.0625v53.921875c.03125 7.882813 8.792969 12.777344 15.601562 8.808594l46.59375-27.144531c6.8125-3.96875 6.773438-13.820313-.066406-17.734376l-46.804687-26.78125c-6.84375-3.914062-15.355469 1.046876-15.324219 8.929688zm0 0" fill="#ffbd5a"/><path d="m408.855469 41.242188v37.808593h-274.46875c-17.25 0-31.242188 13.992188-31.242188 31.242188v182.578125h-61.90625c-17.25 0-31.238281-13.980469-31.238281-31.238282v-220.390624c0-17.25 13.988281-31.242188 31.238281-31.242188h336.375c17.261719 0 31.242188 13.988281 31.242188 31.242188zm0 0" fill="#91d9b9"/><path d="m134.386719 79.050781c-17.25 0-31.242188 13.992188-31.242188 31.242188v36.765625h-93.144531v-68.007813zm0 0" fill="#adaaaf"/><path d="m150.433594 192.460938h79.679687v59.101562h-79.679687zm0 0" fill="#ffbd5a"/><g fill="#231f20"><path d="m362.773438 220.179688c3.539062 0 7.078124-.917969 10.21875-2.746094l18.945312-11.035156c7.816406 6.035156 17.363281 9.199218 27.015625 9.199218 7.601563 0 15.269531-1.957031 22.195313-5.992187 10.195312-5.9375 17.46875-15.488281 20.476562-26.898438 3.007812-11.410156 1.390625-23.304687-4.546875-33.496093-5.933594-10.195313-15.484375-17.464844-26.894531-20.472657-11.410156-3.007812-23.304688-1.394531-33.496094 4.542969-2.484375 1.445312-4.789062 3.109375-6.914062 4.972656l-17.128907-9.800781c-6.351562-3.632813-13.917969-3.605469-20.238281.082031-6.316406 3.675782-10.070312 10.238282-10.050781 17.542969v53.945313c.027343 7.28125 3.847656 13.804687 10.222656 17.449218 3.152344 1.804688 6.675781 2.707032 10.195313 2.707032zm62.308593-72.101563c6.242188 1.644531 11.46875 5.621094 14.714844 11.199219 3.25 5.578125 4.132813 12.089844 2.488281 18.332031-1.644531 6.242187-5.625 11.464844-11.199218 14.710937 0 0-.003907.003907-.007813.003907-5.890625 3.4375-12.753906 4.117187-18.953125 2.3125l3.003906-1.75 4.457032-2.597657c6.320312-3.683593 10.078124-10.25 10.050781-17.566406-.027344-7.316406-3.835938-13.855468-10.1875-17.488281l-10.304688-5.894531c5.003907-2.222656 10.570313-2.679688 15.9375-1.261719zm-62.726562-2.015625c0-.011719 0-.027344 0-.039062 0-.070313.003906-.105469.007812-.113282.03125-.058594.175781-.152344.246094-.144531.007813.003906.042969.015625.101563.050781l23.96875 13.710938c.003906.003906.003906.003906.007812.003906l22.828125 13.0625c.070313.042969.09375.070312.09375.070312.03125.046876.03125.195313.003906.257813 0 .003906 0 .015625-.003906.019531 0 0-.003906.003906-.003906.003906-.003907.003907-.03125.023438-.050781.035157-.011719.007812-.019532.015625-.042969.027343l-5.929688 3.457032-40.660156 23.6875c-.261719.152344-.570313-.167969-.570313-.167969zm0 0"/><path d="m470.761719 69.050781h-51.910157v-27.808593c0-22.742188-18.5-41.242188-41.238281-41.242188h-336.375c-22.738281 0-41.238281 18.5-41.238281 41.242188v220.390624c0 22.738282 18.5 41.238282 41.238281 41.238282h51.910157v27.820312c0 22.738282 18.5 41.238282 41.238281 41.238282h258.582031c5.523438 0 10-4.476563 10-10 0-5.523438-4.476562-10-10-10h-258.582031c-11.710938 0-21.238281-9.527344-21.238281-21.238282v-220.398437c0-11.710938 9.527343-21.242188 21.238281-21.242188h336.375c11.710937 0 21.238281 9.53125 21.238281 21.242188v220.398437c0 11.710938-9.527344 21.238282-21.238281 21.238282-5.523438 0-10 4.476562-10 10 0 5.523437 4.476562 10 10 10 22.738281 0 41.238281-18.5 41.238281-41.238282v-220.398437c0-22.742188-18.5-41.242188-41.238281-41.242188zm-371.839844 20.230469c-3.765625 6.328125-5.773437 13.648438-5.773437 21.011719v26.765625h-73.148438v-48.007813h79.046875c-.042969.078125-.082031.15625-.125.230469zm-57.683594 193.589844c-11.710937 0-21.238281-9.527344-21.238281-21.238282v-104.574218h73.144531v125.8125zm93.148438-213.820313h-114.386719v-27.808593c0-11.714844 9.527344-21.242188 21.238281-21.242188h336.375c11.710938 0 21.242188 9.527344 21.242188 21.242188v27.808593zm0 0"/><path d="m240.113281 192.460938c0-5.523438-4.476562-10-10-10h-79.679687c-5.523438 0-10 4.476562-10 10v59.101562c0 5.523438 4.476562 10 10 10h79.679687c5.523438 0 10-4.476562 10-10zm-20 19.550781h-26.152343v-9.550781h26.152343zm-46.152343-9.550781v9.550781h-13.527344v-9.550781zm-13.527344 29.550781h22.402344c.371093.039062.742187.066406 1.125.066406.378906 0 .753906-.027344 1.121093-.066406h1.882813v9.550781h-26.53125zm46.53125 9.550781v-9.550781h13.148437v9.550781zm0 0"/><path d="m230.113281 284.039062h-79.679687c-5.523438 0-10 4.476563-10 10 0 5.519532 4.476562 10 10 10h79.679687c5.523438 0 10-4.480468 10-10 0-5.523437-4.476562-10-10-10zm0 0"/><path d="m266.773438 284.039062c-5.523438 0-10 4.476563-10 10 0 5.519532 4.476562 10 10 10h75.652343c5.523438 0 10-4.480468 10-10 0-5.523437-4.476562-10-10-10zm0 0"/><path d="m468.765625 294.039062c0-5.523437-4.476563-10-10-10h-78.671875c-5.523438 0-10 4.476563-10 10 0 5.519532 4.476562 10 10 10h78.671875c5.523437 0 10-4.480468 10-10zm0 0"/><path d="m441.121094 358.105469c-1.613282-3.871094-5.574219-6.390625-9.773438-6.160157-4.101562.222657-7.71875 3.019532-8.976562 6.925782-1.28125 3.96875.109375 8.453125 3.425781 10.992187 3.324219 2.535157 7.984375 2.726563 11.503906.46875 4.007813-2.570312 5.652344-7.828125 3.820313-12.226562zm0 0"/></g></svg>